<svg width="32" height="32" viewBox="0 0 32 32" fill="none" xmlns="http://www.w3.org/2000/svg">
<g clip-path="url(#clip0_503_7)">
<path d="M24.5 0H7.5C3.35786 0 0 3.35786 0 7.5V24.5C0 28.6421 3.35786 32 7.5 32H24.5C28.6421 32 32 28.6421 32 24.5V7.5C32 3.35786 28.6421 0 24.5 0Z" fill="url(#paint0_linear_503_7)"/>
<path d="M7.07641 16.1061L7.06628 17.4166H11.2313V29.2515H14.1775V17.4166H18.3425V16.1315C18.3425 15.4203 18.3274 14.8261 18.307 14.8108C18.2918 14.7906 15.7572 14.7803 12.6842 14.7855L7.09178 14.8007L7.07641 16.1061ZM25.8209 14.7635C26.6335 14.9667 27.2533 15.3273 27.8222 15.9165C28.1168 16.2315 28.5535 16.8055 28.5892 16.9426C28.5993 16.9832 27.2075 17.9178 26.3644 18.441C26.3339 18.4613 26.2119 18.3292 26.0748 18.1261C25.6634 17.5267 25.2317 17.2676 24.5713 17.222C23.6012 17.1558 22.9764 17.6638 22.9815 18.5121C22.9815 18.761 23.017 18.9082 23.1187 19.1115C23.3319 19.5533 23.7282 19.8175 24.9727 20.3558C27.2634 21.3413 28.2437 21.9915 28.8533 22.9158C29.5339 23.947 29.6863 25.5927 29.224 26.8168C28.7162 28.1476 27.4564 29.0517 25.6837 29.3515C25.1352 29.448 23.8348 29.4327 23.2457 29.3261C21.9605 29.0975 20.7415 28.4626 19.9898 27.6296C19.6952 27.3045 19.1212 26.4562 19.1568 26.3952C19.1719 26.375 19.304 26.2937 19.4513 26.2073C19.5935 26.1261 20.132 25.8162 20.6399 25.5216L21.5593 24.9882L21.7523 25.2727C22.0215 25.6841 22.6107 26.248 22.9663 26.4358C23.9872 26.9743 25.3892 26.8981 26.0799 26.2785C26.3745 26.0092 26.4964 25.7298 26.4964 25.3185C26.4964 24.9476 26.4507 24.7851 26.2577 24.5057C26.0088 24.1502 25.5009 23.8505 24.0583 23.2257C22.4075 22.5146 21.6964 22.0727 21.0463 21.3717C20.6704 20.9655 20.3148 20.3152 20.1675 19.7717C20.0457 19.3197 20.0152 18.187 20.1117 17.7298C20.4519 16.135 21.6558 15.0226 23.3929 14.6923C23.9568 14.5857 25.2672 14.6263 25.8209 14.7635Z" fill="white"/>
</g>
<defs>
<linearGradient id="paint0_linear_503_7" x1="-0.264991" y1="-1.06282" x2="21.3245" y2="25.0668" gradientUnits="userSpaceOnUse">
<stop stop-color="#41D1FF"/>
<stop offset="1" stop-color="#BD34FE"/>
</linearGradient>
<clipPath id="clip0_503_7">
<rect width="32" height="32" fill="white"/>
</clipPath>
</defs>
</svg>
